<?xml version="1.0" standalone="no"?>
<!DOCTYPE svg PUBLIC "-//W3C//DTD SVG 20010904//EN"
 "http://www.w3.org/TR/2001/REC-SVG-20010904/DTD/svg10.dtd">
<svg version="1.0" xmlns="http://www.w3.org/2000/svg"
 width="640.000000pt" height="151.000000pt" viewBox="0 0 640.000000 151.000000"
 preserveAspectRatio="xMidYMid meet">

<g transform="translate(0.000000,151.000000) scale(0.100000,-0.100000)"
fill="#000000" stroke="none">
<path d="M0 776 l0 -726 105 0 105 0 0 481 c0 299 4 479 9 477 6 -1 252 -221
547 -488 296 -267 546 -491 556 -498 18 -13 18 -8 16 135 l-3 149 -656 590
c-360 325 -661 594 -667 598 -9 5 -12 -164 -12 -718z"/>
<path d="M5551 1397 l-54 -102 186 -346 c103 -190 189 -354 193 -363 6 -15
-26 -16 -382 -16 l-389 0 -137 -254 c-76 -140 -138 -257 -138 -260 0 -3 51 -6
113 -6 l112 0 83 155 83 155 389 0 389 0 83 -155 83 -155 113 0 c67 0 112 4
110 9 -8 24 -774 1440 -778 1441 -3 0 -29 -46 -59 -103z"/>
<path d="M2060 1479 c-284 -33 -510 -217 -597 -484 -34 -107 -43 -293 -19
-408 53 -257 219 -447 458 -522 427 -135 847 71 959 470 33 114 33 307 1 418
-84 293 -319 492 -622 527 -47 5 -89 9 -95 9 -5 -1 -44 -5 -85 -10z m213 -204
c241 -51 407 -263 407 -520 0 -253 -151 -455 -384 -515 -190 -48 -381 2 -511
134 -102 104 -147 220 -148 381 -1 348 297 592 636 520z"/>
<path d="M3450 1112 c-211 -191 -384 -352 -384 -357 -1 -6 173 -166 384 -357
l385 -348 155 0 c152 0 154 0 135 19 -11 10 -184 166 -385 347 -201 180 -366
332 -367 338 -1 6 146 144 327 306 182 162 356 318 387 347 l58 52 -155 0
-155 0 -385 -347z"/>
<path d="M4430 755 l0 -705 100 0 100 0 0 705 0 705 -100 0 -100 0 0 -705z"/>
</g>
</svg>
